<svg xmlns="http://www.w3.org/2000/svg" xmlns:xlink="http://www.w3.org/1999/xlink" version="1.1" width="256" height="256" viewBox="0 0 256 256" xml:space="preserve">

<defs>
</defs>
<g style="stroke: none; stroke-width: 0; stroke-dasharray: none; stroke-linecap: butt; stroke-linejoin: miter; stroke-miterlimit: 10; fill: none; fill-rule: nonzero; opacity: 1;" transform="translate(1.4065934065934016 1.4065934065934016) scale(2.81 2.81)" >
	<path d="M 6.064 89 c -1.29 0 -2.546 -0.51 -3.476 -1.45 c -1.228 -1.242 -1.701 -3.045 -1.239 -4.73 l 4.981 -18.184 C 3.178 58.509 1.514 51.679 1.5 44.75 c 0 -0.035 -0.001 -0.07 -0.001 -0.104 C 1.509 20.579 21.097 1 45.163 1 c 11.673 0.005 22.641 4.551 30.885 12.801 c 8.243 8.251 12.782 19.218 12.777 30.88 C 88.816 68.749 69.229 88.33 45.163 88.33 c -6.631 -0.003 -13.193 -1.52 -19.117 -4.404 L 7.304 88.841 C 6.893 88.947 6.477 89 6.064 89 z M 26.618 73.833 c 0.811 0 1.617 0.201 2.34 0.597 c 4.942 2.694 10.54 4.119 16.191 4.122 c 18.69 0 33.891 -15.196 33.899 -33.875 c 0.003 -9.051 -3.519 -17.562 -9.916 -23.965 c -6.398 -6.402 -14.91 -9.931 -23.97 -9.934 c -18.646 0 -33.828 15.146 -33.884 33.782 c 0 0.03 0.001 0.061 0.001 0.091 c -0.002 5.95 1.561 11.805 4.52 16.931 c 0.653 1.132 0.826 2.476 0.481 3.735 l -3.264 11.917 l 12.362 -3.242 C 25.786 73.886 26.203 73.833 26.618 73.833 z" style="stroke: none; stroke-width: 1; stroke-dasharray: none; stroke-linecap: butt; stroke-linejoin: miter; stroke-miterlimit: 10; fill: rgb(42,181,64); fill-rule: nonzero; opacity: 1;" transform=" matrix(1 0 0 1 0 0) " stroke-linecap="round" />
	<path d="M 65.954 53.138 c -0.42 -0.699 -1.125 -1.04 -1.941 -1.433 l -0.518 -0.254 c -0.055 -0.028 -5.68 -2.82 -6.773 -3.217 c -0.772 -0.282 -2.577 -0.939 -3.903 1.05 c -0.537 0.804 -2.212 2.802 -2.951 3.645 c -0.01 0.011 -0.019 0.021 -0.027 0.03 c -0.065 -0.02 -0.165 -0.059 -0.309 -0.131 c -0.179 -0.09 -0.421 -0.197 -0.722 -0.328 c -1.341 -0.582 -3.836 -1.666 -6.752 -4.266 c -2.623 -2.338 -4.439 -5.22 -5.098 -6.353 c 0.063 -0.07 0.145 -0.15 0.194 -0.199 c 0.341 -0.34 0.704 -0.781 1.055 -1.208 c 0.161 -0.195 0.321 -0.391 0.479 -0.575 c 0.531 -0.622 0.775 -1.121 1.034 -1.649 l 0.13 -0.264 c 0.473 -0.944 0.446 -1.957 -0.079 -3.006 c -0.092 -0.19 -0.546 -1.309 -0.947 -2.296 c -0.672 -1.656 -1.508 -3.716 -2.015 -4.844 h 0 c -0.965 -2.145 -2.232 -2.487 -3.456 -2.538 c -0.554 -0.023 -1.194 -0.025 -1.815 -0.024 h -0.104 c -0.637 0 -2.27 0.165 -3.664 1.688 l -0.178 0.19 c -1.077 1.148 -3.599 3.838 -3.599 8.88 c 0 4.71 2.962 9.18 4.247 10.897 c 0.033 0.045 0.089 0.129 0.169 0.247 c 4.834 7.163 10.878 12.442 17.018 14.863 c 5.667 2.234 8.398 2.69 10.167 2.69 c 0.647 0 1.166 -0.061 1.653 -0.118 c 0.161 -0.019 0.318 -0.037 0.476 -0.052 c 2.105 -0.191 6.733 -2.618 7.789 -5.574 C 66.245 56.941 66.631 54.274 65.954 53.138 z" style="stroke: none; stroke-width: 1; stroke-dasharray: none; stroke-linecap: butt; stroke-linejoin: miter; stroke-miterlimit: 10; fill: rgb(42,181,64); fill-rule: nonzero; opacity: 1;" transform=" matrix(1 0 0 1 0 0) " stroke-linecap="round" />
	<path d="M 6.064 90 c -1.563 0 -3.089 -0.637 -4.187 -1.747 c -1.475 -1.491 -2.047 -3.675 -1.493 -5.698 l 4.878 -17.812 C 2.16 58.578 0.514 51.675 0.5 44.752 L 0.5 44.646 C 0.509 20.028 20.545 0 45.163 0 c 11.939 0.005 23.159 4.655 31.592 13.094 c 8.434 8.44 13.075 19.659 13.07 31.588 C 89.815 69.301 69.78 89.33 45.163 89.33 c -6.621 -0.003 -13.257 -1.504 -19.219 -4.344 L 7.557 89.809 C 7.066 89.936 6.564 90 6.064 90 z M 45.163 2 C 21.648 2 2.509 21.131 2.5 44.646 L 2.5 44.748 c 0.013 6.737 1.645 13.456 4.718 19.43 l 0.178 0.346 l -5.083 18.56 c -0.366 1.337 0.012 2.778 0.986 3.764 c 0.958 0.968 2.414 1.372 3.754 1.026 l 19.098 -5.009 l 0.333 0.162 c 5.777 2.813 12.237 4.301 18.68 4.304 c 23.514 0 42.652 -19.133 42.662 -42.649 c 0.005 -11.395 -4.429 -22.111 -12.484 -30.173 C 67.285 6.447 56.568 2.005 45.163 2 z M 45.149 79.552 c -5.816 -0.003 -11.58 -1.471 -16.669 -4.244 c -0.861 -0.47 -1.9 -0.597 -2.85 -0.348 l -14.036 3.682 l 3.721 -13.588 c 0.276 -1.01 0.14 -2.064 -0.383 -2.972 c -3.046 -5.278 -4.656 -11.306 -4.654 -17.432 C 10.335 25.379 25.984 9.778 45.161 9.778 c 9.327 0.004 18.091 3.636 24.677 10.227 c 6.587 6.592 10.213 15.354 10.21 24.673 C 80.04 63.907 64.384 79.552 45.149 79.552 z M 26.618 72.833 c 0.983 0 1.958 0.249 2.82 0.719 c 4.795 2.614 10.229 3.997 15.711 4 c 18.133 0 32.891 -14.748 32.898 -32.875 c 0.003 -8.784 -3.415 -17.044 -9.624 -23.258 c -6.209 -6.213 -14.471 -9.637 -23.263 -9.641 c -18.077 0 -32.829 14.707 -32.883 32.785 c -0.001 5.864 1.516 11.546 4.387 16.52 c 0.792 1.373 0.999 2.972 0.58 4.5 l -2.806 10.245 l 10.686 -2.802 C 25.612 72.897 26.115 72.833 26.618 72.833 z" style="stroke: none; stroke-width: 1; stroke-dasharray: none; stroke-linecap: butt; stroke-linejoin: miter; stroke-miterlimit: 10; fill: rgb(0,0,0); fill-rule: nonzero; opacity: 1;" transform=" matrix(1 0 0 1 0 0) " stroke-linecap="round" />
	<path d="M 55.595 65.736 c -1.646 0 -4.329 -0.313 -10.533 -2.76 c -6.325 -2.494 -12.533 -7.904 -17.48 -15.234 l -0.148 -0.218 c -1.329 -1.777 -4.438 -6.476 -4.438 -11.486 c 0 -5.437 2.711 -8.329 3.869 -9.563 l 0.177 -0.189 c 1.656 -1.81 3.625 -2.006 4.395 -2.006 h 0.104 c 0.631 -0.001 1.291 0 1.857 0.025 c 1.384 0.057 3.127 0.464 4.325 3.127 c 0.523 1.165 1.394 3.311 2.029 4.877 l 0.064 0.159 c 0.329 0.81 0.78 1.918 0.856 2.079 c 0.658 1.315 0.685 2.665 0.072 3.888 l -0.127 0.258 c -0.273 0.558 -0.557 1.137 -1.17 1.856 c -0.129 0.151 -0.259 0.309 -0.39 0.468 l -0.078 0.094 c -0.252 0.306 -0.51 0.62 -0.769 0.908 c 0.825 1.321 2.399 3.585 4.513 5.47 c 2.795 2.492 5.194 3.534 6.483 4.094 c 0.132 0.058 0.253 0.111 0.363 0.16 c 0.841 -0.984 2.013 -2.407 2.416 -3.013 c 1.172 -1.756 2.881 -2.24 5.079 -1.435 c 1.021 0.371 5.495 2.577 6.843 3.245 l 0.545 0.267 c 0.874 0.422 1.783 0.859 2.358 1.817 l 0.001 0.002 c 1.005 1.683 0.249 5.005 -0.357 6.702 c -1.248 3.493 -6.304 6.021 -8.64 6.234 c -0.141 0.012 -0.275 0.027 -0.413 0.044 C 56.863 65.67 56.3 65.736 55.595 65.736 z M 31.436 26.28 c -0.505 0 -1.8 0.133 -2.926 1.363 l -0.185 0.197 c -0.998 1.064 -3.33 3.552 -3.33 8.198 c 0 4.41 2.831 8.671 4.047 10.299 l 0.148 0.214 c 4.772 7.071 10.651 12.218 16.604 14.564 c 5.957 2.35 8.446 2.621 9.8 2.621 c 0.587 0 1.067 -0.057 1.532 -0.111 c 0.203 -0.024 0.357 -0.042 0.512 -0.055 c 1.781 -0.162 6.035 -2.401 6.934 -4.915 c 0.785 -2.2 0.904 -4.362 0.524 -5.003 c -0.255 -0.424 -0.72 -0.662 -1.518 -1.047 l -0.523 -0.256 c -2.639 -1.308 -5.938 -2.908 -6.675 -3.175 c -0.971 -0.356 -1.907 -0.57 -2.73 0.664 c -0.615 0.924 -2.437 3.071 -3.03 3.749 l -0.432 0.492 l -0.65 -0.168 c -0.095 -0.03 -0.241 -0.085 -0.45 -0.188 c -0.171 -0.086 -0.397 -0.185 -0.678 -0.307 c -1.392 -0.604 -3.983 -1.73 -7.018 -4.437 c -2.728 -2.432 -4.613 -5.422 -5.297 -6.595 l -0.37 -0.634 l 0.494 -0.543 c 0.067 -0.074 0.151 -0.158 0.21 -0.217 c 0.324 -0.323 0.67 -0.745 1.006 -1.152 l 0.078 -0.095 c 0.139 -0.169 0.277 -0.336 0.414 -0.496 c 0.448 -0.525 0.646 -0.928 0.895 -1.438 l 0.131 -0.266 c 0.332 -0.662 0.306 -1.353 -0.077 -2.117 c -0.1 -0.207 -0.412 -0.971 -0.914 -2.207 l -0.065 -0.16 c -0.63 -1.553 -1.492 -3.679 -2 -4.809 c -0.78 -1.734 -1.667 -1.912 -2.584 -1.95 c -0.542 -0.022 -1.167 -0.024 -1.772 -0.023 H 31.436 z" style="stroke: none; stroke-width: 1; stroke-dasharray: none; stroke-linecap: butt; stroke-linejoin: miter; stroke-miterlimit: 10; fill: rgb(0,0,0); fill-rule: nonzero; opacity: 1;" transform=" matrix(1 0 0 1 0 0) " stroke-linecap="round" />
</g>
</svg>